<mxfile host="app.diagrams.net" modified="2024-05-22T05:15:06.208Z" agent="Mozilla/5.0 (Windows NT 10.0; Win64; x64) AppleWebKit/537.36 (KHTML, like Gecko) Chrome/124.0.0.0 Safari/537.36" etag="CkE1CwS-Q9uMovZJX8uR" version="24.4.4" type="device">
  <diagram name="Page-1" id="xSOeUP8m1cpwBj4cDGHX">
    <mxGraphModel dx="1050" dy="557" grid="1" gridSize="10" guides="1" tooltips="1" connect="1" arrows="1" fold="1" page="1" pageScale="1" pageWidth="827" pageHeight="1169" math="0" shadow="0">
      <root>
        <mxCell id="0" />
        <mxCell id="1" parent="0" />
        <mxCell id="Km68QufFf2iJRPZflKQI-24" value="VPC" style="points=[[0,0],[0.25,0],[0.5,0],[0.75,0],[1,0],[1,0.25],[1,0.5],[1,0.75],[1,1],[0.75,1],[0.5,1],[0.25,1],[0,1],[0,0.75],[0,0.5],[0,0.25]];outlineConnect=0;gradientColor=none;html=1;whiteSpace=wrap;fontSize=12;fontStyle=0;container=1;pointerEvents=0;collapsible=0;recursiveResize=0;shape=mxgraph.aws4.group;grIcon=mxgraph.aws4.group_vpc2;strokeColor=#8C4FFF;fillColor=none;verticalAlign=top;align=left;spacingLeft=30;fontColor=#AAB7B8;dashed=0;" parent="1" vertex="1">
          <mxGeometry x="250" y="90" width="700" height="760" as="geometry" />
        </mxCell>
        <mxCell id="Km68QufFf2iJRPZflKQI-74" value="&lt;div&gt;NAT Gateway 1&lt;/div&gt;" style="text;html=1;align=center;verticalAlign=middle;whiteSpace=wrap;rounded=0;" parent="Km68QufFf2iJRPZflKQI-24" vertex="1">
          <mxGeometry x="280" y="170" width="100" height="30" as="geometry" />
        </mxCell>
        <mxCell id="Km68QufFf2iJRPZflKQI-59" value="&lt;span style=&quot;color: rgb(0, 0, 0); text-align: center;&quot;&gt;Region = us-east-2&amp;nbsp;&lt;/span&gt;&lt;span style=&quot;color: rgb(0, 0, 0); text-align: center; background-color: initial;&quot;&gt;(Ohio)&lt;/span&gt;&lt;div&gt;&lt;span style=&quot;color: rgb(0, 0, 0); text-align: center; background-color: initial;&quot;&gt;&lt;br&gt;&lt;/span&gt;&lt;/div&gt;" style="points=[[0,0],[0.25,0],[0.5,0],[0.75,0],[1,0],[1,0.25],[1,0.5],[1,0.75],[1,1],[0.75,1],[0.5,1],[0.25,1],[0,1],[0,0.75],[0,0.5],[0,0.25]];outlineConnect=0;gradientColor=none;html=1;whiteSpace=wrap;fontSize=12;fontStyle=0;container=1;pointerEvents=0;collapsible=0;recursiveResize=0;shape=mxgraph.aws4.group;grIcon=mxgraph.aws4.group_region;strokeColor=#00A4A6;fillColor=none;verticalAlign=top;align=left;spacingLeft=30;fontColor=#147EBA;dashed=1;" parent="1" vertex="1">
          <mxGeometry x="210" y="50" width="770" height="840" as="geometry" />
        </mxCell>
        <mxCell id="Km68QufFf2iJRPZflKQI-60" value="AWS Cloud" style="points=[[0,0],[0.25,0],[0.5,0],[0.75,0],[1,0],[1,0.25],[1,0.5],[1,0.75],[1,1],[0.75,1],[0.5,1],[0.25,1],[0,1],[0,0.75],[0,0.5],[0,0.25]];outlineConnect=0;gradientColor=none;html=1;whiteSpace=wrap;fontSize=12;fontStyle=0;container=1;pointerEvents=0;collapsible=0;recursiveResize=0;shape=mxgraph.aws4.group;grIcon=mxgraph.aws4.group_aws_cloud_alt;strokeColor=#232F3E;fillColor=none;verticalAlign=top;align=left;spacingLeft=30;fontColor=#232F3E;dashed=0;" parent="1" vertex="1">
          <mxGeometry x="180" y="30" width="840" height="900" as="geometry" />
        </mxCell>
        <mxCell id="Km68QufFf2iJRPZflKQI-37" value="" style="outlineConnect=0;dashed=0;verticalLabelPosition=bottom;verticalAlign=top;align=center;html=1;shape=mxgraph.aws3.internet_gateway;fillColor=#F58534;gradientColor=none;" parent="Km68QufFf2iJRPZflKQI-60" vertex="1">
          <mxGeometry x="46" y="110" width="46.5" height="52" as="geometry" />
        </mxCell>
        <mxCell id="Km68QufFf2iJRPZflKQI-40" value="" style="sketch=0;outlineConnect=0;fontColor=#232F3E;gradientColor=none;fillColor=#8C4FFF;strokeColor=none;dashed=0;verticalLabelPosition=bottom;verticalAlign=top;align=center;html=1;fontSize=12;fontStyle=0;aspect=fixed;pointerEvents=1;shape=mxgraph.aws4.nat_gateway;direction=east;" parent="Km68QufFf2iJRPZflKQI-60" vertex="1">
          <mxGeometry x="365" y="261" width="78" height="78" as="geometry" />
        </mxCell>
        <mxCell id="Km68QufFf2iJRPZflKQI-32" value="Availability-Zone 2b&lt;div&gt;&lt;br&gt;&lt;/div&gt;" style="text;html=1;align=center;verticalAlign=middle;whiteSpace=wrap;rounded=0;" parent="Km68QufFf2iJRPZflKQI-60" vertex="1">
          <mxGeometry x="525" y="690" width="110" height="30" as="geometry" />
        </mxCell>
        <mxCell id="Km68QufFf2iJRPZflKQI-18" value="Private subnet" style="points=[[0,0],[0.25,0],[0.5,0],[0.75,0],[1,0],[1,0.25],[1,0.5],[1,0.75],[1,1],[0.75,1],[0.5,1],[0.25,1],[0,1],[0,0.75],[0,0.5],[0,0.25]];outlineConnect=0;gradientColor=none;html=1;whiteSpace=wrap;fontSize=12;fontStyle=0;container=1;pointerEvents=0;collapsible=0;recursiveResize=0;shape=mxgraph.aws4.group;grIcon=mxgraph.aws4.group_security_group;grStroke=0;strokeColor=#00A4A6;fillColor=#E6F6F7;verticalAlign=top;align=left;spacingLeft=30;fontColor=#147EBA;dashed=0;" parent="Km68QufFf2iJRPZflKQI-60" vertex="1">
          <mxGeometry x="525" y="605" width="200" height="160" as="geometry" />
        </mxCell>
        <mxCell id="Km68QufFf2iJRPZflKQI-50" value="MongoDB" style="sketch=0;outlineConnect=0;fontColor=#232F3E;gradientColor=none;fillColor=#232F3D;strokeColor=none;dashed=0;verticalLabelPosition=bottom;verticalAlign=top;align=center;html=1;fontSize=12;fontStyle=0;aspect=fixed;pointerEvents=1;shape=mxgraph.aws4.generic_database;" parent="Km68QufFf2iJRPZflKQI-18" vertex="1">
          <mxGeometry x="120" y="47" width="59" height="78" as="geometry" />
        </mxCell>
        <mxCell id="6MFt2mlsn2bpFiWNyX5O-3" value="" style="sketch=0;points=[[0,0,0],[0.25,0,0],[0.5,0,0],[0.75,0,0],[1,0,0],[0,1,0],[0.25,1,0],[0.5,1,0],[0.75,1,0],[1,1,0],[0,0.25,0],[0,0.5,0],[0,0.75,0],[1,0.25,0],[1,0.5,0],[1,0.75,0]];outlineConnect=0;fontColor=#232F3E;fillColor=#ED7100;strokeColor=#ffffff;dashed=0;verticalLabelPosition=bottom;verticalAlign=top;align=center;html=1;fontSize=12;fontStyle=0;aspect=fixed;shape=mxgraph.aws4.resourceIcon;resIcon=mxgraph.aws4.ec2;" parent="Km68QufFf2iJRPZflKQI-18" vertex="1">
          <mxGeometry x="12" y="61" width="78" height="78" as="geometry" />
        </mxCell>
        <mxCell id="Km68QufFf2iJRPZflKQI-20" value="Public subnet" style="points=[[0,0],[0.25,0],[0.5,0],[0.75,0],[1,0],[1,0.25],[1,0.5],[1,0.75],[1,1],[0.75,1],[0.5,1],[0.25,1],[0,1],[0,0.75],[0,0.5],[0,0.25]];outlineConnect=0;gradientColor=none;html=1;whiteSpace=wrap;fontSize=12;fontStyle=0;container=1;pointerEvents=0;collapsible=0;recursiveResize=0;shape=mxgraph.aws4.group;grIcon=mxgraph.aws4.group_security_group;grStroke=0;strokeColor=#7AA116;fillColor=#F2F6E8;verticalAlign=top;align=left;spacingLeft=30;fontColor=#248814;dashed=0;" parent="Km68QufFf2iJRPZflKQI-60" vertex="1">
          <mxGeometry x="115" y="605" width="200" height="160" as="geometry" />
        </mxCell>
        <mxCell id="Km68QufFf2iJRPZflKQI-63" value="Availability-Zone 2b" style="text;html=1;align=center;verticalAlign=middle;whiteSpace=wrap;rounded=0;" parent="Km68QufFf2iJRPZflKQI-60" vertex="1">
          <mxGeometry x="92.5" y="570" width="120" height="30" as="geometry" />
        </mxCell>
        <mxCell id="Km68QufFf2iJRPZflKQI-65" value="" style="sketch=0;outlineConnect=0;fontColor=#232F3E;gradientColor=none;fillColor=#8C4FFF;strokeColor=none;dashed=0;verticalLabelPosition=bottom;verticalAlign=top;align=center;html=1;fontSize=12;fontStyle=0;aspect=fixed;pointerEvents=1;shape=mxgraph.aws4.nat_gateway;direction=east;" parent="Km68QufFf2iJRPZflKQI-60" vertex="1">
          <mxGeometry x="370" y="646" width="78" height="78" as="geometry" />
        </mxCell>
        <mxCell id="Km68QufFf2iJRPZflKQI-73" value="NAT Gateway 2&lt;div&gt;&lt;br&gt;&lt;/div&gt;" style="text;html=1;align=center;verticalAlign=middle;whiteSpace=wrap;rounded=0;" parent="Km68QufFf2iJRPZflKQI-60" vertex="1">
          <mxGeometry x="349" y="605" width="110" height="30" as="geometry" />
        </mxCell>
        <mxCell id="6MFt2mlsn2bpFiWNyX5O-6" value="" style="sketch=0;points=[[0,0,0],[0.25,0,0],[0.5,0,0],[0.75,0,0],[1,0,0],[0,1,0],[0.25,1,0],[0.5,1,0],[0.75,1,0],[1,1,0],[0,0.25,0],[0,0.5,0],[0,0.75,0],[1,0.25,0],[1,0.5,0],[1,0.75,0]];outlineConnect=0;fontColor=#232F3E;fillColor=#ED7100;strokeColor=#ffffff;dashed=0;verticalLabelPosition=bottom;verticalAlign=top;align=center;html=1;fontSize=12;fontStyle=0;aspect=fixed;shape=mxgraph.aws4.resourceIcon;resIcon=mxgraph.aws4.eks_cloud;" parent="Km68QufFf2iJRPZflKQI-60" vertex="1">
          <mxGeometry x="612" y="84" width="78" height="78" as="geometry" />
        </mxCell>
        <mxCell id="Km68QufFf2iJRPZflKQI-31" value="Availability-Zone 2a" style="text;html=1;align=center;verticalAlign=middle;whiteSpace=wrap;rounded=0;" parent="Km68QufFf2iJRPZflKQI-60" vertex="1">
          <mxGeometry x="130" y="190" width="120" height="30" as="geometry" />
        </mxCell>
        <mxCell id="Km68QufFf2iJRPZflKQI-19" value="Public subnet" style="points=[[0,0],[0.25,0],[0.5,0],[0.75,0],[1,0],[1,0.25],[1,0.5],[1,0.75],[1,1],[0.75,1],[0.5,1],[0.25,1],[0,1],[0,0.75],[0,0.5],[0,0.25]];outlineConnect=0;gradientColor=none;html=1;whiteSpace=wrap;fontSize=12;fontStyle=0;container=1;pointerEvents=0;collapsible=0;recursiveResize=0;shape=mxgraph.aws4.group;grIcon=mxgraph.aws4.group_security_group;grStroke=0;strokeColor=#7AA116;fillColor=#F2F6E8;verticalAlign=top;align=left;spacingLeft=30;fontColor=#248814;dashed=0;" parent="Km68QufFf2iJRPZflKQI-60" vertex="1">
          <mxGeometry x="110" y="230" width="200" height="160" as="geometry" />
        </mxCell>
        <mxCell id="Km68QufFf2iJRPZflKQI-30" value="Bastion Server&lt;div&gt;&lt;br&gt;&lt;/div&gt;" style="text;html=1;align=center;verticalAlign=middle;whiteSpace=wrap;rounded=0;" parent="Km68QufFf2iJRPZflKQI-60" vertex="1">
          <mxGeometry x="210" y="270" width="90" height="30" as="geometry" />
        </mxCell>
        <mxCell id="6MFt2mlsn2bpFiWNyX5O-4" value="" style="sketch=0;points=[[0,0,0],[0.25,0,0],[0.5,0,0],[0.75,0,0],[1,0,0],[0,1,0],[0.25,1,0],[0.5,1,0],[0.75,1,0],[1,1,0],[0,0.25,0],[0,0.5,0],[0,0.75,0],[1,0.25,0],[1,0.5,0],[1,0.75,0]];outlineConnect=0;fontColor=#232F3E;fillColor=#ED7100;strokeColor=#ffffff;dashed=0;verticalLabelPosition=bottom;verticalAlign=top;align=center;html=1;fontSize=12;fontStyle=0;aspect=fixed;shape=mxgraph.aws4.resourceIcon;resIcon=mxgraph.aws4.ec2;" parent="Km68QufFf2iJRPZflKQI-60" vertex="1">
          <mxGeometry x="120" y="271" width="78" height="78" as="geometry" />
        </mxCell>
        <mxCell id="Km68QufFf2iJRPZflKQI-16" value="Private subnet" style="points=[[0,0],[0.25,0],[0.5,0],[0.75,0],[1,0],[1,0.25],[1,0.5],[1,0.75],[1,1],[0.75,1],[0.5,1],[0.25,1],[0,1],[0,0.75],[0,0.5],[0,0.25]];outlineConnect=0;gradientColor=none;html=1;whiteSpace=wrap;fontSize=12;fontStyle=0;container=1;pointerEvents=0;collapsible=0;recursiveResize=0;shape=mxgraph.aws4.group;grIcon=mxgraph.aws4.group_security_group;grStroke=0;strokeColor=#00A4A6;fillColor=#E6F6F7;verticalAlign=top;align=left;spacingLeft=30;fontColor=#147EBA;dashed=0;" parent="Km68QufFf2iJRPZflKQI-60" vertex="1">
          <mxGeometry x="520" y="230" width="200" height="160" as="geometry" />
        </mxCell>
        <mxCell id="Km68QufFf2iJRPZflKQI-38" value="Libra-Application&lt;div&gt;&lt;br&gt;&lt;/div&gt;" style="text;html=1;align=center;verticalAlign=middle;whiteSpace=wrap;rounded=0;" parent="Km68QufFf2iJRPZflKQI-60" vertex="1">
          <mxGeometry x="610" y="295" width="110" height="30" as="geometry" />
        </mxCell>
        <mxCell id="6MFt2mlsn2bpFiWNyX5O-2" value="" style="sketch=0;points=[[0,0,0],[0.25,0,0],[0.5,0,0],[0.75,0,0],[1,0,0],[0,1,0],[0.25,1,0],[0.5,1,0],[0.75,1,0],[1,1,0],[0,0.25,0],[0,0.5,0],[0,0.75,0],[1,0.25,0],[1,0.5,0],[1,0.75,0]];outlineConnect=0;fontColor=#232F3E;fillColor=#ED7100;strokeColor=#ffffff;dashed=0;verticalLabelPosition=bottom;verticalAlign=top;align=center;html=1;fontSize=12;fontStyle=0;aspect=fixed;shape=mxgraph.aws4.resourceIcon;resIcon=mxgraph.aws4.ec2;" parent="Km68QufFf2iJRPZflKQI-60" vertex="1">
          <mxGeometry x="536.5" y="271" width="78" height="78" as="geometry" />
        </mxCell>
        <mxCell id="6MFt2mlsn2bpFiWNyX5O-11" value="" style="edgeStyle=orthogonalEdgeStyle;html=1;endArrow=block;elbow=vertical;startArrow=none;endFill=1;strokeColor=#545B64;rounded=0;" parent="Km68QufFf2iJRPZflKQI-60" source="Km68QufFf2iJRPZflKQI-19" target="Km68QufFf2iJRPZflKQI-40" edge="1">
          <mxGeometry width="100" relative="1" as="geometry">
            <mxPoint x="370" y="360" as="sourcePoint" />
            <mxPoint x="360" y="310" as="targetPoint" />
            <Array as="points">
              <mxPoint x="320" y="300" />
              <mxPoint x="320" y="300" />
            </Array>
          </mxGeometry>
        </mxCell>
        <mxCell id="6MFt2mlsn2bpFiWNyX5O-15" value="" style="edgeStyle=orthogonalEdgeStyle;html=1;endArrow=block;elbow=vertical;startArrow=none;endFill=1;strokeColor=#545B64;rounded=0;" parent="Km68QufFf2iJRPZflKQI-60" source="Km68QufFf2iJRPZflKQI-65" target="Km68QufFf2iJRPZflKQI-18" edge="1">
          <mxGeometry width="100" relative="1" as="geometry">
            <mxPoint x="425" y="663.89" as="sourcePoint" />
            <mxPoint x="525" y="663.89" as="targetPoint" />
          </mxGeometry>
        </mxCell>
        <mxCell id="6MFt2mlsn2bpFiWNyX5O-16" value="" style="edgeStyle=orthogonalEdgeStyle;html=1;endArrow=block;elbow=vertical;startArrow=none;endFill=1;strokeColor=#545B64;rounded=0;" parent="Km68QufFf2iJRPZflKQI-60" source="Km68QufFf2iJRPZflKQI-20" target="Km68QufFf2iJRPZflKQI-65" edge="1">
          <mxGeometry width="100" relative="1" as="geometry">
            <mxPoint x="318" y="664" as="sourcePoint" />
            <mxPoint x="365" y="663.58" as="targetPoint" />
          </mxGeometry>
        </mxCell>
        <mxCell id="6MFt2mlsn2bpFiWNyX5O-17" value="" style="outlineConnect=0;dashed=0;verticalLabelPosition=bottom;verticalAlign=top;align=center;html=1;shape=mxgraph.aws3.classic_load_balancer;fillColor=#F58534;gradientColor=none;" parent="Km68QufFf2iJRPZflKQI-60" vertex="1">
          <mxGeometry x="100" y="440" width="69" height="72" as="geometry" />
        </mxCell>
        <mxCell id="6MFt2mlsn2bpFiWNyX5O-18" value="" style="edgeStyle=orthogonalEdgeStyle;html=1;endArrow=block;elbow=vertical;startArrow=none;endFill=1;strokeColor=#545B64;rounded=0;entryX=0.542;entryY=1.03;entryDx=0;entryDy=0;entryPerimeter=0;" parent="Km68QufFf2iJRPZflKQI-60" target="Km68QufFf2iJRPZflKQI-19" edge="1">
          <mxGeometry width="100" relative="1" as="geometry">
            <mxPoint x="169" y="475.57" as="sourcePoint" />
            <mxPoint x="269" y="475.57" as="targetPoint" />
            <Array as="points">
              <mxPoint x="218" y="476" />
            </Array>
          </mxGeometry>
        </mxCell>
        <mxCell id="6MFt2mlsn2bpFiWNyX5O-20" value="" style="edgeStyle=orthogonalEdgeStyle;html=1;endArrow=block;elbow=vertical;startArrow=none;endFill=1;strokeColor=#545B64;rounded=0;entryX=0.5;entryY=0;entryDx=0;entryDy=0;" parent="Km68QufFf2iJRPZflKQI-60" target="Km68QufFf2iJRPZflKQI-20" edge="1">
          <mxGeometry width="100" relative="1" as="geometry">
            <mxPoint x="169" y="475.78" as="sourcePoint" />
            <mxPoint x="220" y="476" as="targetPoint" />
          </mxGeometry>
        </mxCell>
        <mxCell id="6MFt2mlsn2bpFiWNyX5O-27" value="Load Balancer&lt;div&gt;&lt;br&gt;&lt;/div&gt;" style="text;html=1;align=center;verticalAlign=middle;whiteSpace=wrap;rounded=0;" parent="Km68QufFf2iJRPZflKQI-60" vertex="1">
          <mxGeometry x="-30" y="512" width="300" height="30" as="geometry" />
        </mxCell>
        <mxCell id="6MFt2mlsn2bpFiWNyX5O-7" value="" style="shape=actor;whiteSpace=wrap;html=1;" parent="1" vertex="1">
          <mxGeometry x="20" y="470" width="40" height="60" as="geometry" />
        </mxCell>
        <mxCell id="6MFt2mlsn2bpFiWNyX5O-8" value="USER" style="text;html=1;align=center;verticalAlign=middle;whiteSpace=wrap;rounded=0;" parent="1" vertex="1">
          <mxGeometry x="10" y="555" width="60" height="30" as="geometry" />
        </mxCell>
        <mxCell id="6MFt2mlsn2bpFiWNyX5O-10" value="" style="edgeStyle=orthogonalEdgeStyle;html=1;endArrow=block;elbow=vertical;startArrow=none;endFill=1;strokeColor=#545B64;rounded=0;" parent="1" source="Km68QufFf2iJRPZflKQI-40" edge="1">
          <mxGeometry width="100" relative="1" as="geometry">
            <mxPoint x="650" y="390" as="sourcePoint" />
            <mxPoint x="700" y="330" as="targetPoint" />
          </mxGeometry>
        </mxCell>
        <mxCell id="6MFt2mlsn2bpFiWNyX5O-22" value="" style="edgeStyle=orthogonalEdgeStyle;html=1;endArrow=block;elbow=vertical;startArrow=none;endFill=1;strokeColor=#545B64;rounded=0;entryX=0;entryY=0.5;entryDx=0;entryDy=0;entryPerimeter=0;exitX=1.003;exitY=0.675;exitDx=0;exitDy=0;exitPerimeter=0;" parent="1" source="6MFt2mlsn2bpFiWNyX5O-7" target="6MFt2mlsn2bpFiWNyX5O-17" edge="1">
          <mxGeometry width="100" relative="1" as="geometry">
            <mxPoint x="80" y="500" as="sourcePoint" />
            <mxPoint x="180" y="500" as="targetPoint" />
            <Array as="points">
              <mxPoint x="60" y="506" />
            </Array>
          </mxGeometry>
        </mxCell>
        <mxCell id="6MFt2mlsn2bpFiWNyX5O-24" value="" style="rounded=1;arcSize=10;dashed=1;strokeColor=#F59D56;fillColor=none;gradientColor=none;dashPattern=8 4;strokeWidth=2;" parent="1" vertex="1">
          <mxGeometry x="280" y="210" width="650" height="240" as="geometry" />
        </mxCell>
        <mxCell id="6MFt2mlsn2bpFiWNyX5O-26" value="" style="rounded=1;arcSize=10;dashed=1;strokeColor=#F59D56;fillColor=none;gradientColor=none;dashPattern=8 4;strokeWidth=2;" parent="1" vertex="1">
          <mxGeometry x="270" y="580" width="660" height="250" as="geometry" />
        </mxCell>
      </root>
    </mxGraphModel>
  </diagram>
</mxfile>
